<?xml version="1.0" encoding="UTF-8" standalone="no"?>
<!DOCTYPE svg PUBLIC "-//W3C//DTD SVG 1.1//EN"
 "http://www.w3.org/Graphics/SVG/1.1/DTD/svg11.dtd">
<!-- Generated by graphviz version 3.0.0 (0)
 -->
<!-- Title: G Pages: 1 -->
<svg width="665pt" height="461pt"
 viewBox="0.00 0.00 665.00 461.00" xmlns="http://www.w3.org/2000/svg" xmlns:xlink="http://www.w3.org/1999/xlink">
<g id="graph0" class="graph" transform="scale(1 1) rotate(0) translate(4 457)">
<title>G</title>
<polygon fill="white" stroke="transparent" points="-4,4 -4,-457 661,-457 661,4 -4,4"/>
<g id="clust1" class="cluster">
<title>cluster_root</title>
<g id="a_clust1"><a xlink:title="eventq_index=0&#10;full_system=false&#10;sim_quantum=0&#10;time_sync_enable=false&#10;time_sync_period=100000000000&#10;time_sync_spin_threshold=100000000">
<path fill="#bab6ae" stroke="#000000" d="M20,-8C20,-8 637,-8 637,-8 643,-8 649,-14 649,-20 649,-20 649,-433 649,-433 649,-439 643,-445 637,-445 637,-445 20,-445 20,-445 14,-445 8,-439 8,-433 8,-433 8,-20 8,-20 8,-14 14,-8 20,-8"/>
<text text-anchor="middle" x="328.5" y="-429.8" font-family="Arial" font-size="14.00" fill="#000000">root </text>
<text text-anchor="middle" x="328.5" y="-414.8" font-family="Arial" font-size="14.00" fill="#000000">: Root</text>
</a>
</g>
</g>
<g id="clust2" class="cluster">
<title>cluster_system</title>
<g id="a_clust2"><a xlink:title="cache_line_size=64&#10;eventq_index=0&#10;exit_on_work_items=false&#10;init_param=0&#10;kvm_vm=Null&#10;m5ops_base=4294901760&#10;mem_mode=timing&#10;mem_ranges=0:536870912&#10;memories=system.mem_ctrl.dram&#10;mmap_using_noreserve=false&#10;multi_thread=false&#10;&#10;um_work_ids=16&#10;&#13;eadfile=&#10;&#13;edirect_paths=&#10;shadow_rom_ranges=&#10;shared_backstore=&#10;symbolfile=&#10;thermal_components=&#10;thermal_model=Null&#10;work_begin_ckpt_count=0&#10;work_begin_cpu_id_exit=&#45;1&#10;work_begin_exit_count=0&#10;work_cpus_ckpt_count=0&#10;work_end_ckpt_count=0&#10;work_end_exit_count=0&#10;work_item_id=&#45;1&#10;workload=system.workload">
<path fill="#e4e7eb" stroke="#000000" d="M28,-16C28,-16 629,-16 629,-16 635,-16 641,-22 641,-28 641,-28 641,-387 641,-387 641,-393 635,-399 629,-399 629,-399 28,-399 28,-399 22,-399 16,-393 16,-387 16,-387 16,-28 16,-28 16,-22 22,-16 28,-16"/>
<text text-anchor="middle" x="328.5" y="-383.8" font-family="Arial" font-size="14.00" fill="#000000">system </text>
<text text-anchor="middle" x="328.5" y="-368.8" font-family="Arial" font-size="14.00" fill="#000000">: System</text>
</a>
</g>
</g>
<g id="clust6" class="cluster">
<title>cluster_system_cpu</title>
<g id="a_clust6"><a xlink:title="branchPred=Null&#10;checker=Null&#10;clk_domain=system.clk_domain&#10;cpu_id=&#45;1&#10;decoder=system.cpu.decoder&#10;do_checkpoint_insts=true&#10;do_statistics_insts=true&#10;eventq_index=0&#10;function_trace=false&#10;function_trace_start=0&#10;interrupts=system.cpu.interrupts&#10;isa=system.cpu.isa&#10;max_insts_all_threads=0&#10;max_insts_any_thread=0&#10;mmu=system.cpu.mmu&#10;&#10;umThreads=1&#10;power_gating_on_idle=false&#10;power_model=&#10;power_state=system.cpu.power_state&#10;progress_interval=0&#10;pwr_gating_latency=300&#10;simpoint_start_insts=&#10;socket_id=0&#10;switched_out=false&#10;syscallRetryLatency=10000&#10;system=system&#10;tracer=system.cpu.tracer&#10;workload=system.cpu.workload">
<path fill="#bbc6d9" stroke="#000000" d="M36,-24C36,-24 536,-24 536,-24 542,-24 548,-30 548,-36 548,-36 548,-157 548,-157 548,-163 542,-169 536,-169 536,-169 36,-169 36,-169 30,-169 24,-163 24,-157 24,-157 24,-36 24,-36 24,-30 30,-24 36,-24"/>
<text text-anchor="middle" x="286" y="-153.8" font-family="Arial" font-size="14.00" fill="#000000">cpu </text>
<text text-anchor="middle" x="286" y="-138.8" font-family="Arial" font-size="14.00" fill="#000000">: TimingSimpleCPU</text>
</a>
</g>
</g>
<g id="clust16" class="cluster">
<title>cluster_system_cpu_interrupts</title>
<g id="a_clust16"><a xlink:title="clk_domain=system.cpu.interrupts.clk_domain&#10;eventq_index=0&#10;int_latency=1000&#10;pio_latency=100000&#10;system=system">
<path fill="#bab6ae" stroke="#000000" d="M250,-32C250,-32 528,-32 528,-32 534,-32 540,-38 540,-44 540,-44 540,-111 540,-111 540,-117 534,-123 528,-123 528,-123 250,-123 250,-123 244,-123 238,-117 238,-111 238,-111 238,-44 238,-44 238,-38 244,-32 250,-32"/>
<text text-anchor="middle" x="389" y="-107.8" font-family="Arial" font-size="14.00" fill="#000000">interrupts </text>
<text text-anchor="middle" x="389" y="-92.8" font-family="Arial" font-size="14.00" fill="#000000">: X86LocalApic</text>
</a>
</g>
</g>
<g id="clust21" class="cluster">
<title>cluster_system_membus</title>
<g id="a_clust21"><a xlink:title="clk_domain=system.clk_domain&#10;eventq_index=0&#10;forward_latency=4&#10;frontend_latency=3&#10;header_latency=1&#10;max_outstanding_snoops=512&#10;max_routing_table_size=512&#10;point_of_coherency=true&#10;point_of_unification=true&#10;power_model=&#10;power_state=system.membus.power_state&#10;&#13;esponse_latency=2&#10;snoop_filter=system.membus.snoop_filter&#10;snoop_response_latency=4&#10;system=system&#10;use_default_range=false&#10;width=16">
<path fill="#6f798c" stroke="#000000" d="M225,-177C225,-177 461,-177 461,-177 467,-177 473,-183 473,-189 473,-189 473,-256 473,-256 473,-262 467,-268 461,-268 461,-268 225,-268 225,-268 219,-268 213,-262 213,-256 213,-256 213,-189 213,-189 213,-183 219,-177 225,-177"/>
<text text-anchor="middle" x="343" y="-252.8" font-family="Arial" font-size="14.00" fill="#000000">membus </text>
<text text-anchor="middle" x="343" y="-237.8" font-family="Arial" font-size="14.00" fill="#000000">: SystemXBar</text>
</a>
</g>
</g>
<g id="clust24" class="cluster">
<title>cluster_system_mem_ctrl</title>
<g id="a_clust24"><a xlink:title="clk_domain=system.clk_domain&#10;command_window=10000&#10;dram=system.mem_ctrl.dram&#10;eventq_index=0&#10;mem_sched_policy=frfcfs&#10;min_writes_per_switch=16&#10;&#10;vm=Null&#10;power_model=&#10;power_state=system.mem_ctrl.power_state&#10;qos_policy=Null&#10;qos_priorities=1&#10;qos_priority_escalation=false&#10;qos_q_policy=fifo&#10;qos_requestors= &#160;&#160;&#160;&#160;&#160;&#160;&#160;&#160;&#160;&#160;&#160;&#160;&#160;&#160;&#10;qos_syncro_scheduler=false&#10;qos_turnaround_policy=Null&#10;static_backend_latency=10000&#10;static_frontend_latency=10000&#10;system=system&#10;write_high_thresh_perc=85&#10;write_low_thresh_perc=50">
<path fill="#bab6ae" stroke="#000000" d="M568,-32C568,-32 621,-32 621,-32 627,-32 633,-38 633,-44 633,-44 633,-111 633,-111 633,-117 627,-123 621,-123 621,-123 568,-123 568,-123 562,-123 556,-117 556,-111 556,-111 556,-44 556,-44 556,-38 562,-32 568,-32"/>
<text text-anchor="middle" x="594.5" y="-107.8" font-family="Arial" font-size="14.00" fill="#000000">mem_ctrl </text>
<text text-anchor="middle" x="594.5" y="-92.8" font-family="Arial" font-size="14.00" fill="#000000">: MemCtrl</text>
</a>
</g>
</g>
<!-- system_system_port -->
<g id="node1" class="node">
<title>system_system_port</title>
<path fill="#b6b8bc" stroke="#000000" d="M241.5,-316.5C241.5,-316.5 308.5,-316.5 308.5,-316.5 314.5,-316.5 320.5,-322.5 320.5,-328.5 320.5,-328.5 320.5,-340.5 320.5,-340.5 320.5,-346.5 314.5,-352.5 308.5,-352.5 308.5,-352.5 241.5,-352.5 241.5,-352.5 235.5,-352.5 229.5,-346.5 229.5,-340.5 229.5,-340.5 229.5,-328.5 229.5,-328.5 229.5,-322.5 235.5,-316.5 241.5,-316.5"/>
<text text-anchor="middle" x="275" y="-330.8" font-family="Arial" font-size="14.00" fill="#000000">system_port</text>
</g>
<!-- system_membus_cpu_side_ports -->
<g id="node7" class="node">
<title>system_membus_cpu_side_ports</title>
<path fill="#586070" stroke="#000000" d="M233,-185.5C233,-185.5 317,-185.5 317,-185.5 323,-185.5 329,-191.5 329,-197.5 329,-197.5 329,-209.5 329,-209.5 329,-215.5 323,-221.5 317,-221.5 317,-221.5 233,-221.5 233,-221.5 227,-221.5 221,-215.5 221,-209.5 221,-209.5 221,-197.5 221,-197.5 221,-191.5 227,-185.5 233,-185.5"/>
<text text-anchor="middle" x="275" y="-199.8" font-family="Arial" font-size="14.00" fill="#000000">cpu_side_ports</text>
</g>
<!-- system_system_port&#45;&gt;system_membus_cpu_side_ports -->
<g id="edge1" class="edge">
<title>system_system_port&#45;&gt;system_membus_cpu_side_ports</title>
<path fill="none" stroke="black" d="M275,-316.37C275,-294.78 275,-257.41 275,-231.85"/>
<polygon fill="black" stroke="black" points="278.5,-231.7 275,-221.7 271.5,-231.7 278.5,-231.7"/>
</g>
<!-- system_cpu_icache_port -->
<g id="node2" class="node">
<title>system_cpu_icache_port</title>
<path fill="#959ead" stroke="#000000" d="M154,-40.5C154,-40.5 216,-40.5 216,-40.5 222,-40.5 228,-46.5 228,-52.5 228,-52.5 228,-64.5 228,-64.5 228,-70.5 222,-76.5 216,-76.5 216,-76.5 154,-76.5 154,-76.5 148,-76.5 142,-70.5 142,-64.5 142,-64.5 142,-52.5 142,-52.5 142,-46.5 148,-40.5 154,-40.5"/>
<text text-anchor="middle" x="185" y="-54.8" font-family="Arial" font-size="14.00" fill="#000000">icache_port</text>
</g>
<!-- system_cpu_dcache_port -->
<g id="node3" class="node">
<title>system_cpu_dcache_port</title>
<path fill="#959ead" stroke="#000000" d="M44.5,-40.5C44.5,-40.5 111.5,-40.5 111.5,-40.5 117.5,-40.5 123.5,-46.5 123.5,-52.5 123.5,-52.5 123.5,-64.5 123.5,-64.5 123.5,-70.5 117.5,-76.5 111.5,-76.5 111.5,-76.5 44.5,-76.5 44.5,-76.5 38.5,-76.5 32.5,-70.5 32.5,-64.5 32.5,-64.5 32.5,-52.5 32.5,-52.5 32.5,-46.5 38.5,-40.5 44.5,-40.5"/>
<text text-anchor="middle" x="78" y="-54.8" font-family="Arial" font-size="14.00" fill="#000000">dcache_port</text>
</g>
<!-- system_cpu_interrupts_int_requestor -->
<g id="node4" class="node">
<title>system_cpu_interrupts_int_requestor</title>
<path fill="#94918b" stroke="#000000" d="M258.5,-40.5C258.5,-40.5 329.5,-40.5 329.5,-40.5 335.5,-40.5 341.5,-46.5 341.5,-52.5 341.5,-52.5 341.5,-64.5 341.5,-64.5 341.5,-70.5 335.5,-76.5 329.5,-76.5 329.5,-76.5 258.5,-76.5 258.5,-76.5 252.5,-76.5 246.5,-70.5 246.5,-64.5 246.5,-64.5 246.5,-52.5 246.5,-52.5 246.5,-46.5 252.5,-40.5 258.5,-40.5"/>
<text text-anchor="middle" x="294" y="-54.8" font-family="Arial" font-size="14.00" fill="#000000">int_requestor</text>
</g>
<!-- system_cpu_interrupts_int_responder -->
<g id="node5" class="node">
<title>system_cpu_interrupts_int_responder</title>
<path fill="#94918b" stroke="#000000" d="M444.5,-40.5C444.5,-40.5 519.5,-40.5 519.5,-40.5 525.5,-40.5 531.5,-46.5 531.5,-52.5 531.5,-52.5 531.5,-64.5 531.5,-64.5 531.5,-70.5 525.5,-76.5 519.5,-76.5 519.5,-76.5 444.5,-76.5 444.5,-76.5 438.5,-76.5 432.5,-70.5 432.5,-64.5 432.5,-64.5 432.5,-52.5 432.5,-52.5 432.5,-46.5 438.5,-40.5 444.5,-40.5"/>
<text text-anchor="middle" x="482" y="-54.8" font-family="Arial" font-size="14.00" fill="#000000">int_responder</text>
</g>
<!-- system_cpu_interrupts_pio -->
<g id="node6" class="node">
<title>system_cpu_interrupts_pio</title>
<path fill="#94918b" stroke="#000000" d="M372,-40.5C372,-40.5 402,-40.5 402,-40.5 408,-40.5 414,-46.5 414,-52.5 414,-52.5 414,-64.5 414,-64.5 414,-70.5 408,-76.5 402,-76.5 402,-76.5 372,-76.5 372,-76.5 366,-76.5 360,-70.5 360,-64.5 360,-64.5 360,-52.5 360,-52.5 360,-46.5 366,-40.5 372,-40.5"/>
<text text-anchor="middle" x="387" y="-54.8" font-family="Arial" font-size="14.00" fill="#000000">pio</text>
</g>
<!-- system_membus_cpu_side_ports&#45;&gt;system_cpu_icache_port -->
<g id="edge2" class="edge">
<title>system_membus_cpu_side_ports&#45;&gt;system_cpu_icache_port</title>
<path fill="none" stroke="black" d="M242.71,-178.66C239.56,-175.61 236.58,-172.37 234,-169 211.85,-140.06 197.08,-99.51 189.96,-76.76"/>
<polygon fill="black" stroke="black" points="240.48,-181.36 250.27,-185.4 245.14,-176.14 240.48,-181.36"/>
</g>
<!-- system_membus_cpu_side_ports&#45;&gt;system_cpu_dcache_port -->
<g id="edge3" class="edge">
<title>system_membus_cpu_side_ports&#45;&gt;system_cpu_dcache_port</title>
<path fill="none" stroke="black" d="M210.74,-199.14C184.37,-194.95 154.94,-186.33 133,-169 103.12,-145.4 88.13,-101.27 81.82,-76.85"/>
<polygon fill="black" stroke="black" points="210.29,-202.61 220.68,-200.54 211.26,-195.68 210.29,-202.61"/>
</g>
<!-- system_membus_cpu_side_ports&#45;&gt;system_cpu_interrupts_int_requestor -->
<g id="edge4" class="edge">
<title>system_membus_cpu_side_ports&#45;&gt;system_cpu_interrupts_int_requestor</title>
<path fill="none" stroke="black" d="M278.66,-174.99C282.51,-145.99 288.46,-101.22 291.7,-76.81"/>
<polygon fill="black" stroke="black" points="275.14,-174.88 277.29,-185.25 282.08,-175.8 275.14,-174.88"/>
</g>
<!-- system_membus_mem_side_ports -->
<g id="node8" class="node">
<title>system_membus_mem_side_ports</title>
<path fill="#586070" stroke="#000000" d="M359,-185.5C359,-185.5 453,-185.5 453,-185.5 459,-185.5 465,-191.5 465,-197.5 465,-197.5 465,-209.5 465,-209.5 465,-215.5 459,-221.5 453,-221.5 453,-221.5 359,-221.5 359,-221.5 353,-221.5 347,-215.5 347,-209.5 347,-209.5 347,-197.5 347,-197.5 347,-191.5 353,-185.5 359,-185.5"/>
<text text-anchor="middle" x="406" y="-199.8" font-family="Arial" font-size="14.00" fill="#000000">mem_side_ports</text>
</g>
<!-- system_membus_mem_side_ports&#45;&gt;system_cpu_interrupts_int_responder -->
<g id="edge6" class="edge">
<title>system_membus_mem_side_ports&#45;&gt;system_cpu_interrupts_int_responder</title>
<path fill="none" stroke="black" d="M415.17,-185.25C428.29,-160.56 452.55,-114.92 467.95,-85.94"/>
<polygon fill="black" stroke="black" points="471.2,-87.28 472.8,-76.81 465.02,-84 471.2,-87.28"/>
</g>
<!-- system_membus_mem_side_ports&#45;&gt;system_cpu_interrupts_pio -->
<g id="edge5" class="edge">
<title>system_membus_mem_side_ports&#45;&gt;system_cpu_interrupts_pio</title>
<path fill="none" stroke="black" d="M403.71,-185.25C400.47,-160.88 394.52,-116.11 390.67,-87.09"/>
<polygon fill="black" stroke="black" points="394.09,-86.26 389.3,-76.81 387.15,-87.18 394.09,-86.26"/>
</g>
<!-- system_mem_ctrl_port -->
<g id="node9" class="node">
<title>system_mem_ctrl_port</title>
<path fill="#94918b" stroke="#000000" d="M576,-40.5C576,-40.5 606,-40.5 606,-40.5 612,-40.5 618,-46.5 618,-52.5 618,-52.5 618,-64.5 618,-64.5 618,-70.5 612,-76.5 606,-76.5 606,-76.5 576,-76.5 576,-76.5 570,-76.5 564,-70.5 564,-64.5 564,-64.5 564,-52.5 564,-52.5 564,-46.5 570,-40.5 576,-40.5"/>
<text text-anchor="middle" x="591" y="-54.8" font-family="Arial" font-size="14.00" fill="#000000">port</text>
</g>
<!-- system_membus_mem_side_ports&#45;&gt;system_mem_ctrl_port -->
<g id="edge7" class="edge">
<title>system_membus_mem_side_ports&#45;&gt;system_mem_ctrl_port</title>
<path fill="none" stroke="black" d="M465.08,-199.97C491.78,-196.07 522.16,-187.46 544,-169 568.75,-148.08 580.8,-111.77 586.44,-86.73"/>
<polygon fill="black" stroke="black" points="589.9,-87.27 588.48,-76.77 583.04,-85.87 589.9,-87.27"/>
</g>
</g>
</svg>
